# xmcd CD database file
#
# Track frame offsets:
#	150
#	20248
#	40574
#	66348
#	90027
#	112490
#	135335
#	155930
#	169598
#	189714
#
# Disc length: 2862 seconds
#
# Revision: 0
# Processed by: cddbd v1.5.1PL0 Copyright (c) Steve Scherf et al.
# Submitted via: CDex 1.50beta8
#
DISCID=860b2c0a
DTITLE=YangYang - 二胡で奏でるスタンダード vol.2 癒しの森のジャズ
DYEAR=1900
DGENRE=Jazz
TTITLE0=LA VIE EN ROSE
TTITLE1=MY FAVORITE THINGS
TTITLE2=SUMMER TIME
TTITLE3=STARDUST
TTITLE4=SMILE
TTITLE5=AS TIME GOES BY
TTITLE6=ROUND MIDNIGHT
TTITLE7=FLY ME TO THE MOON
TTITLE8=ORFEU NEGRO
TTITLE9=WHAT A WONDERFUL WORLD
EXTD=
EXTT0=
EXTT1=
EXTT2=
EXTT3=
EXTT4=
EXTT5=
EXTT6=
EXTT7=
EXTT8=
EXTT9=
PLAYORDER=
